<svg xmlns="http://www.w3.org/2000/svg" viewBox="0 0 100 100">
  <!-- Bird body -->
  <path fill="#1F3649" d="
    M 20,43 C 16,37 18,27 26,21
    C 28,13 38,7 50,9
    C 62,7 74,13 80,23
    C 88,15 95,21 94,33
    C 93,45 86,51 79,51
    C 84,61 84,75 76,83
    C 68,92 52,96 36,92
    C 20,88 10,76 11,64
    C 8,56 12,49 20,43 Z
  "/>
  <!-- Eye -->
  <circle fill="white" cx="33" cy="25" r="5.5"/>
  <!-- Wing arc -->
  <path fill="white" d="M 47,35 C 59,23 79,25 86,39 C 74,47 54,49 38,59 C 36,50 40,42 47,35 Z"/>
  <!-- Tail feather detail -->
  <path fill="white" opacity="0.65" d="M 77,69 C 85,61 91,53 89,45 C 87,56 81,65 73,73 Z"/>
</svg>
